<?xml version="1.0" encoding="utf-8"?>
<!-- Generator: Adobe Illustrator 19.2.1, SVG Export Plug-In . SVG Version: 6.00 Build 0)  -->
<!DOCTYPE svg PUBLIC "-//W3C//DTD SVG 1.1//EN" "http://www.w3.org/Graphics/SVG/1.1/DTD/svg11.dtd">
<svg version="1.1" id="Layer_1" xmlns="http://www.w3.org/2000/svg" xmlns:xlink="http://www.w3.org/1999/xlink" x="0px" y="0px"
	 viewBox="0 0 512 512" style="enable-background:new 0 0 512 512;" xml:space="preserve">
<path d="M432.7,0.6H84.6c-45.1,0-85,32.9-85,78v348c0,45.3,39.9,85.7,85,85.7h215.5c-0.4-67,0.1-141.8-0.2-206.7
	c-13.7-0.1-27.5-0.8-41.2-1c0-22.9,0-46.4,0-69.2c13.7-0.2,27.5-0.2,41.2-0.3c0.4-22.3-0.4-44.7,0.4-67c1.4-17.7,8.1-35.5,21.2-47.7
	c16-15.2,38.7-20.4,60.1-21c22.6-0.2,45.3-0.1,68-0.1c0.1,23.8,0.1,47.8,0,71.7c-14.7,0-29.2,0-43.9,0c-9.3-0.6-18.8,6.5-20.5,15.7
	c-0.2,16-0.1,31.9-0.1,48c21.4,0.1,43,0,64.4,0.1c-1.6,23.1-4.5,46.2-7.8,69.1c-19,0.2-38,1.9-56.9,2c-0.2,64.8,0,139.7-0.1,206.7
	h47.9c45.3,0,78.7-40.5,78.7-85.6V78.6C511.4,33.5,477.9,0.6,432.7,0.6z"/>
</svg>
